<?xml version="1.0" encoding="UTF-8"?><svg id="Lager_2" xmlns="http://www.w3.org/2000/svg" viewBox="0 0 187.19 62.22"><defs><style>.cls-1{fill:none;stroke:#fff;stroke-miterlimit:10;stroke-width:1.5px;}.cls-2{fill:#fff;}</style></defs><g id="Lager_2-2"><g><path class="cls-2" d="M52.39,38.7V14.11c.53,.15,.94,.24,1.32,.39,2.72,1.12,5.23,2.6,7.59,4.35,1.33,.99,1.8,2.4,2.06,3.93,.27,1.6,.02,3.16-.45,4.68-.22,.71-.33,1.38-.17,2.14,.45,2.2-.12,4.29-.89,6.33-.13,.36-.29,.7-.43,1.05-.14,.33-.36,.4-.66,.18-.67-.48-.86-1.68-.36-2.34,.2-.25,.36-.53,.56-.78,1.14-1.38,.71-2.73,.1-4.2-.52-1.26-1.2-2.37-2.26-3.18-.93-.71-1.96-1.29-3-1.84-.39-.21-.92-.15-1.43-.23-.02,.27-.04,.42-.04,.58-.04,5.24-.14,10.48-.08,15.71,.02,1.81-.77,3-2.1,3.99-2.04,1.53-4.38,2.29-6.87,2.64-2.41,.34-4.81,.29-7.08-.71-.71-.32-1.42-.78-1.96-1.34-1.2-1.25-1.07-2.98,.23-4.43,1.43-1.6,3.28-2.48,5.29-3.05,3.05-.85,6.11-1.04,9.16,.05,.45,.16,.87,.38,1.48,.65h0Zm3.76-18.67c1.59,2.59,3.73,4.5,5.58,6.66,.78-1.2,.54-3.47-.57-4.68-1.3-1.42-3.09-1.68-5.01-1.98h0Z"/><path class="cls-2" d="M104.51,42.71h-6.79c-.45-1.51-.25-3,.03-4.48,.41-2.17,.94-4.31,1.3-6.48,.15-.93,.1-1.92-.05-2.86-.15-.95-.83-1.1-1.5-.39-.98,1.02-1.39,2.33-1.73,3.65-.82,3.17-.87,6.38-.55,9.62,.03,.3,.04,.59,.07,.96h-2.86c-.82,0-1.65-.02-2.47,0-.41,.02-.55-.13-.62-.52-.25-1.49-.07-2.96,.22-4.42,.43-2.18,.92-4.35,1.3-6.54,.12-.71,.05-1.48-.06-2.21-.05-.34-.36-.86-.62-.9-.32-.05-.85,.21-1.04,.5-.52,.8-1.01,1.65-1.32,2.54-1.09,3.21-1.14,6.53-.92,9.88,.03,.52,.09,1.04,.15,1.61h-6.81c.62-2.63,1.14-5.29,1.14-8.01s-.51-5.38-1.14-8.04h6.8c-.75,3.3-1.42,6.58-1.07,9.69,.26-1.38,.49-3.03,.9-4.64,.43-1.69,1.25-3.22,2.57-4.41,1.05-.94,2.26-1.54,3.68-1.01,1.49,.55,1.94,1.88,2.13,3.3,.05,.39,0,.79,.14,1.23,.08-.19,.16-.37,.25-.56,.58-1.25,1.3-2.39,2.41-3.25,2.35-1.83,4.96-.76,5.41,2.2,.21,1.4-.02,2.77-.28,4.12-.6,3.2-.3,6.26,1.24,9.17,.03,.05,.03,.11,.08,.24h0Z"/><path class="cls-2" d="M73.54,32.77c.62-1.39,.71-2.82,.16-4.25-.28-.71-.74-1.29-1.49-1.57-.77-.29-1.33,.06-1.51,.87-.16,.7-.28,1.43-.6,2.05-.7,1.35-2.67,1.91-4.04,1.26-1.07-.5-1.32-1.69-.5-2.6,1.28-1.41,2.95-2.1,4.79-2.41,1.54-.26,3.04-.12,4.46,.57,2.11,1.02,3.25,3.26,2.95,5.76-.1,.82-.21,1.63-.32,2.45-.34,2.55,.15,4.94,1.3,7.22,.07,.14,.13,.29,.19,.44,.01,.03,0,.08,0,.14h-6.79c-.09-.68-.19-1.34-.28-2-.4,.44-.76,.93-1.21,1.33-1.88,1.66-4.7,1.63-6.45-.06-.92-.89-1.27-2.04-1.3-3.27-.11-5.09,4.9-7.79,8.7-6.76,.65,.17,1.24,.53,1.92,.83h0Zm-5.5,5.78c.05,.32,.09,.76,.21,1.18,.17,.61,.46,1.17,1.16,1.32,.7,.15,1.17-.27,1.6-.74,.09-.1,.17-.22,.25-.34,.97-1.51,1.27-3.22,1.49-4.95,.09-.75,.12-1.56-.67-1.97-.82-.42-1.52,.05-2.1,.6-1.37,1.29-1.8,2.98-1.94,4.89h0Z"/><path class="cls-2" d="M119.54,37.84c-.28,.4-.59,.73-.77,1.11-.46,1-.03,2.17,1.01,2.93,.95,.7,2.25,.67,3.12-.07,1.21-1.03,1.28-2.67,.05-3.71-.7-.59-1.5-1.06-2.3-1.5-1.06-.6-2.2-1.07-3.24-1.7-1.29-.79-2.24-1.89-2.53-3.43-.29-1.57,.42-3.07,1.95-4.01,2.06-1.27,4.35-1.57,6.72-1.38,1.19,.09,2.35,.33,3.35,1.03,1.45,1.01,1.49,2.73,.05,3.77-1.08,.77-2.3,1.05-3.59,.59-1.22-.43-1.49-1.57-.62-2.53,.35-.38,.83-.75,.55-1.34-.29-.63-.92-.76-1.53-.74-1.15,.03-1.78,.85-2.28,1.74-.39,.69-.47,1.46,.15,2.06,.41,.39,.93,.7,1.45,.93,1.33,.56,2.7,1.01,4.03,1.58,1.36,.59,2.58,1.41,3.23,2.83,1.1,2.39,.04,5.19-2.6,6.35-3.37,1.48-6.73,1.29-9.88-.7-.92-.58-1.57-1.43-1.83-2.52-.41-1.71,.75-2.96,2.49-2.7,1.15,.17,2.11,.73,3.01,1.43h0Z"/><path class="cls-2" d="M134.66,36.86c.19,1.77,.55,3.55,2.09,4.78,.48,.39,1.17,.6,1.8,.71,.81,.15,1.3-.34,1.3-1.17,0-1.14-.48-2.09-1.23-2.92-.1-.12-.27-.18-.46-.29,1.01-.78,1.94-1.35,3.06-1.53,.86-.14,1.66,0,2.24,.69,.61,.72,.59,1.57,.24,2.38-.86,1.97-2.41,3.15-4.47,3.57-5.2,1.06-9.8-3.04-9.45-8.33,.21-3.18,1.43-5.8,4.22-7.47,2.44-1.46,5.06-1.63,7.67-.51,2.63,1.13,3.27,4.05,1.44,6.28-1.31,1.6-3.07,2.49-5,3.06-1.1,.33-2.25,.5-3.45,.76h0Zm-.03-.77c.73-.3,1.4-.47,1.95-.82,1.67-1.08,2.62-2.7,3-4.61,.19-.94,.21-1.95,.11-2.91-.1-.88-.84-1.16-1.63-.72-.36,.2-.71,.47-.98,.77-2.02,2.33-2.42,5.15-2.44,8.29h0Z"/><path class="cls-2" d="M108.42,43.21c-.29-.08-.56-.14-.8-.23-.65-.24-1.14-.8-1.21-1.49-.18-1.89,2.88-3.1,4.55-2.33,1.37,.63,1.54,2.36,.25,3.24-.5,.34-1.09,.55-1.65,.76-.36,.14-.76,.15-1.13,.06h0Z"/><path class="cls-2" d="M114.24,.15V5.38h-.73V1.86h-.13c-.28,1-.59,2-.83,3.02-.12,.49-.34,.63-.84,.47-.33-1.18-.66-2.39-1-3.59h-.09v3.62l-.64,.03V.14h1.05c.35,1.3,.7,2.62,1.07,3.97,.29-1.06,.57-2.1,.85-3.13,.17-.62,.6-.89,1.3-.82h0Z"/><path class="cls-2" d="M54.37,1.92h-.61c-.18-.33-.28-.7-.52-.93-.58-.55-1.58-.3-1.9,.48-.35,.85-.33,1.73-.01,2.58,.24,.63,.82,.87,1.48,.69,.61-.17,.86-.6,.78-1.48-.21,0-.42,0-.64,0-.2,0-.39-.02-.62-.03v-.58h2.06v2.82l-.75-.37c-1.25,.91-3.18,.37-3.25-1.84-.02-.67,.03-1.38,.24-2,.42-1.26,2.17-1.67,3.19-.82,.45,.38,.6,.87,.56,1.47h0Z"/><path class="cls-2" d="M102.84,2.97c.35,.82,.68,1.59,1.01,2.36-.59,.22-.91,.03-1.06-.51-.07-.25-.19-.48-.29-.72-.3-.72-.88-1.03-1.74-.95v2.22h-.73V.19c.91,0,1.82-.05,2.72,.02,.55,.04,.87,.49,.95,1.03,.11,.74-.08,1.36-.86,1.74h0Zm-2.07-2.15v1.57c.52,0,1,.03,1.48,0,.46-.04,.7-.37,.69-.83-.02-.43-.26-.71-.71-.73-.47-.02-.95,0-1.45,0h0Z"/><path class="cls-2" d="M28.25,.13c.85,0,1.67-.04,2.49,.01,.61,.04,1.04,.41,1.18,1.03,.17,.75-.07,1.28-.84,1.83,.33,.77,.66,1.55,.99,2.33-.58,.22-.91,.04-1.06-.51-.07-.25-.19-.48-.29-.72-.3-.72-.88-1.03-1.73-.95v2.22h-.73V.13h0Zm.74,.69v1.58c.49,0,.95,.02,1.4,0,.5-.03,.77-.34,.77-.82s-.27-.74-.75-.76c-.46-.01-.91,0-1.42,0h0Z"/><path class="cls-2" d="M78.67,62.1h-.68v-5.22c.44-.18,.68,0,.9,.39,.59,1.04,1.21,2.07,1.91,3.25v-3.67h.62v5.21c-.38,.14-.61,.03-.81-.33-.59-1.06-1.22-2.1-1.94-3.13v3.5Z"/><path class="cls-2" d="M142.78,.16c.46-.16,.69,.03,.9,.4,.59,1.04,1.21,2.07,1.91,3.24V.14l.62-.03V5.35c-.37,.15-.61,.03-.81-.33-.59-1.06-1.22-2.1-1.94-3.13v3.47l-.68,.05V.16h0Z"/><path class="cls-2" d="M47.71,.16V5.35c-.43,.17-.65-.01-.84-.36-.59-1.04-1.21-2.07-1.92-3.11v3.49h-.69V.16c.44-.15,.69,0,.9,.37,.59,1.06,1.22,2.09,1.93,3.28V.16h.62Z"/><path class="cls-2" d="M161.18,5.44V.11c1.12,.1,2.39-.43,3.17,.74,.77,1.15,.71,2.48,.07,3.67-.72,1.35-2.07,.75-3.24,.92h0Zm.76-4.58v3.79c1.5,.2,2.07-.27,2.11-1.71,0-.14,0-.28,0-.42-.03-1.43-.64-1.92-2.12-1.66h0Z"/><path class="cls-2" d="M86.79,2.76c.06-.43,.08-.83,.18-1.22,.24-.97,.93-1.51,1.89-1.53,.97-.03,1.68,.48,1.96,1.44,.26,.88,.26,1.78-.02,2.66-.29,.93-.97,1.4-1.94,1.38-.95-.02-1.63-.52-1.89-1.46-.11-.42-.14-.87-.2-1.27Zm3.29-1.13c-.17-.58-.56-.92-1.19-.91-.59,0-1.06,.34-1.13,.89-.1,.76-.1,1.55,0,2.3,.07,.55,.54,.88,1.13,.89,.62,0,1.02-.34,1.18-.92"/><path class="cls-2" d="M71.53,58.35h-.63c-.34-.82-.76-1.1-1.37-.85-.21,.09-.45,.32-.48,.52-.03,.2,.14,.52,.31,.63,.41,.24,.87,.39,1.32,.57,.91,.38,1.24,1.06,.9,1.98-.11,.29-.35,.61-.62,.75-.76,.39-1.55,.36-2.29-.08-.51-.31-.58-.82-.56-1.41l.65-.03c.37,.95,.76,1.27,1.44,1.04,.27-.09,.59-.4,.65-.66,.05-.21-.19-.59-.41-.75-.31-.22-.73-.31-1.1-.46-.88-.35-1.26-.92-1.12-1.68,.13-.72,.76-1.17,1.66-1.18,1.1-.02,1.7,.55,1.65,1.63h0Z"/><path class="cls-2" d="M170.63,1.63c-.12,.01-.2,.03-.27,.03-.12,0-.24,0-.34,0-.34-.84-.77-1.13-1.38-.87-.21,.09-.45,.32-.48,.52-.03,.2,.14,.52,.31,.63,.41,.24,.87,.39,1.32,.57,.91,.38,1.24,1.05,.9,1.98-.1,.28-.32,.58-.57,.71-.77,.42-1.58,.39-2.34-.06-.43-.25-.57-.66-.53-1.4h.64c.35,.91,.75,1.23,1.42,1,.27-.09,.59-.4,.65-.66,.05-.21-.2-.59-.41-.75-.31-.22-.73-.31-1.1-.46-.88-.35-1.26-.92-1.12-1.69,.13-.72,.76-1.16,1.66-1.18,1.1-.02,1.7,.55,1.65,1.62h0Z"/><path class="cls-2" d="M123.14,3.74h.68c.29,.92,.78,1.27,1.49,.98,.25-.1,.53-.4,.58-.65,.04-.21-.18-.58-.39-.7-.4-.25-.88-.37-1.32-.56-.81-.36-1.12-1.02-.87-1.8,.24-.76,1.1-1.13,2.16-.91,.82,.17,1.16,.65,1.07,1.54l-.63,.03c-.13-.65-.5-1.08-1.2-.91-.25,.06-.57,.31-.62,.53-.04,.21,.17,.58,.37,.7,.38,.24,.84,.36,1.27,.53,.79,.33,1.08,.82,.98,1.65-.09,.75-.51,1.15-1.36,1.27-1.41,.21-2.18-.36-2.21-1.7h0Z"/><path class="cls-2" d="M19.49,1.63l-.57,.03c-.41-.83-.71-1.08-1.26-.91-.25,.08-.57,.31-.62,.53-.04,.21,.17,.57,.37,.71,.32,.22,.73,.32,1.1,.46,.94,.37,1.25,.83,1.14,1.72-.1,.79-.57,1.21-1.54,1.3-1.04,.09-2.12-.31-2.02-1.71h.68c.28,.9,.77,1.25,1.48,.96,.25-.1,.53-.41,.58-.66,.04-.21-.18-.58-.39-.7-.4-.25-.88-.37-1.32-.56-.81-.36-1.12-1.02-.87-1.8,.25-.76,1.11-1.13,2.16-.9,.82,.17,1.16,.66,1.07,1.54Z"/><path class="cls-2" d="M149.16,.13h3.2V.81h-2.47v1.56c.59,0,1.15,.02,1.7,0,.44-.02,.59,.15,.44,.67-.54,0-1.11,.02-1.68,0-.35-.01-.53,.08-.5,.47,.03,.37,0,.76,0,1.21h2.57c.02,.26,.03,.45,.05,.68h-3.31V.13h0Z"/><path class="cls-2" d="M158.08,2.34v.69c-.6,0-1.18,.01-1.75,0-.33,0-.48,.1-.46,.45,.02,.39,0,.79,0,1.23h2.56c.02,.24,.04,.42,.06,.66h-3.33V.16h3.23V.79h-2.49v1.55h2.17Z"/><path class="cls-2" d="M91.33,61.43h2.58v.66h-3.29v-5.22h3.23v.63h-2.48v1.57h2.17v.67c-.59,0-1.17,.01-1.74,0-.32,0-.48,.08-.47,.44,.02,.39,0,.79,0,1.25h0Z"/><path class="cls-2" d="M25.58,.81h-2.48v1.55h2.16v.67c-.59,0-1.16,.01-1.74,0-.32,0-.49,.08-.47,.43,.02,.39,0,.79,0,1.26h2.58v.67h-3.29V.14h3.22V.81h0Z"/><path class="cls-2" d="M110.74,60.46h.65c.06,.24,.07,.51,.19,.69,.12,.18,.35,.36,.54,.37,.15,.01,.42-.19,.47-.36,.13-.38,.17-.8,.25-1.25-1.01,.38-1.56,.29-1.92-.24-.48-.72-.43-1.97,.11-2.54,.65-.68,1.87-.51,2.2,.38,.48,1.32,.43,2.68-.06,4-.21,.56-.72,.73-1.28,.69-.61-.04-.91-.45-1.07-.99-.06-.22-.06-.47-.09-.76h0Zm2.06-1.96c-.08-.28-.11-.55-.22-.77-.24-.45-.8-.47-1.06-.03-.29,.5-.29,1.03,0,1.53,.23,.38,.75,.4,.99,.03,.14-.22,.19-.51,.28-.76h0Z"/><path class="cls-2" d="M105.47,60.46h.63c.04,.17,.03,.37,.13,.5,.16,.22,.38,.55,.58,.54,.2,0,.47-.32,.56-.55,.13-.3,.11-.65,.16-1.05-.25,.1-.43,.19-.61,.24-.54,.15-1.19-.09-1.34-.62-.16-.57-.22-1.21-.14-1.8,.08-.62,.65-.99,1.26-1,.64-.01,1.16,.33,1.33,1,.32,1.18,.31,2.38-.05,3.56-.22,.71-.73,1.01-1.42,.93-.59-.08-.96-.49-1.06-1.2-.02-.16-.02-.31-.04-.54h0Zm2-1.95c-.03-.22,0-.4-.07-.48-.2-.23-.44-.55-.69-.58-.18-.02-.53,.33-.59,.58-.09,.34-.03,.75,.07,1.09,.05,.17,.35,.38,.52,.37,.21,0,.46-.19,.6-.37,.13-.18,.13-.44,.17-.6h0Z"/><path class="cls-2" d="M64.59,5.39h-.77c-.15-.36-.22-.95-.49-1.07-.44-.19-1.02-.09-1.54-.08-.78,0-.4,.81-.84,1.15h-.6c.04-.17,.06-.32,.11-.46,.47-1.49,.95-2.97,1.4-4.47,.1-.35,.31-.35,.58-.35s.48,0,.59,.35c.49,1.63,1.02,3.24,1.56,4.94h0Zm-2.95-1.86h1.55c-.25-.82-.48-1.59-.71-2.36h-.11c-.24,.76-.47,1.52-.73,2.36h0Z"/><path class="cls-2" d="M136.54,2.02h-.65c-.03-.1-.06-.2-.08-.29-.17-.69-.49-1-1.07-1.02-.58-.02-1.09,.31-1.18,.98-.1,.7-.09,1.44,0,2.13,.09,.66,.6,.99,1.18,.97,.6-.02,.94-.36,1.1-1.06,.02-.08,.03-.15,.05-.24h.6c.16,.71-.11,1.39-.7,1.75-1.09,.66-2.57,.14-2.94-1.07-.31-1-.31-2.02,.07-3.01,.36-.94,1.32-1.35,2.39-1.07,.87,.22,1.32,.92,1.22,1.94h0Z"/><path class="cls-2" d="M87.92,58.75h-.67c-.04-.16-.08-.33-.13-.5-.13-.48-.44-.76-.93-.81-.51-.05-.94,.13-1.14,.6-.4,.94-.39,1.92,0,2.86,.2,.47,.63,.65,1.14,.61,.49-.04,.81-.31,.95-.78,.05-.15,.07-.31,.1-.5h.63c.14,.85-.23,1.57-.95,1.85-.89,.36-2.07,.08-2.46-.67-.66-1.27-.65-2.59,0-3.86,.38-.73,1.37-.99,2.29-.72,.79,.23,1.2,.87,1.17,1.93h0Z"/><path class="cls-2" d="M116.96,.14h.74c0,1.03,0,2.03,0,3.02,0,.26,.02,.52,.06,.78,.08,.57,.43,.84,.99,.85,.54,0,.94-.36,.96-.94,.03-1.04,.02-2.09,.03-3.13V.15h.7c0,1.37,.05,2.73-.02,4.08-.04,.78-.71,1.23-1.58,1.27-.92,.04-1.58-.36-1.76-1.13-.1-.42-.1-.87-.11-1.31-.02-.96,0-1.92,0-2.92h0Z"/><path class="cls-2" d="M93.72,.14h.74c0,.94,0,1.88,0,2.81,0,.32,0,.65,.05,.96,.09,.59,.48,.91,1.02,.89,.54-.03,.92-.38,.94-.98,.03-1.04,.02-2.09,.02-3.13,0-.18,.02-.35,.03-.55h.64c0,1.41,.07,2.83-.03,4.23-.05,.74-.76,1.13-1.63,1.13-.9,0-1.51-.38-1.67-1.16-.1-.48-.1-.99-.11-1.49-.02-.88,0-1.76,0-2.72h0Z"/><path class="cls-2" d="M35.71,5.35c-.52-1.71-1.04-3.44-1.58-5.22h.82c.41,1.4,.82,2.79,1.27,4.36,.27-.9,.5-1.64,.72-2.39,.14-.48,.31-.95,.42-1.44,.1-.49,.33-.7,.88-.49-.18,.62-.36,1.25-.55,1.87-.26,.86-.53,1.72-.79,2.58-.17,.56-.57,.8-1.19,.72h0Z"/><path class="cls-2" d="M116.66,58.66h-.66c-.11-.59-.08-1.13,.37-1.56,.46-.43,1.01-.45,1.58-.27,.76,.24,1.09,1.27,.63,2.14-.24,.46-.59,.86-.9,1.27-.28,.36-.58,.7-.95,1.15h2.03c.01,.26,.02,.46,.03,.7h-2.88c-.03-.72,.31-1.27,.74-1.78,.39-.46,.77-.92,1.13-1.4,.14-.19,.21-.44,.24-.67,.05-.39-.06-.74-.51-.82-.48-.08-.7,.2-.79,.62-.03,.18-.03,.36-.06,.61h0Z"/><path class="cls-2" d="M84.59,.18c-.78,1.65-2.18,3.1-1.6,5.19h-.89c.58-2.06-.77-3.53-1.6-5.18,.54-.18,.86-.08,1.09,.43,.28,.61,.64,1.18,1.02,1.86,.37-.68,.71-1.26,1-1.87,.2-.43,.46-.62,.99-.43h0Z"/><path class="cls-2" d="M100.11,62.09v-.57h1.16v-3.68c-.31,0-.62,.01-.93,0-.09,0-.22-.11-.24-.19-.01-.09,.06-.25,.14-.28,.56-.2,1.13-.37,1.77-.58v4.69c.4,.02,.73,.04,1.1,.06v.56h-3.01Z"/><path class="cls-2" d="M72.08,5.37V.14l.7-.03V4.7h2.11c.02,.26,.03,.45,.05,.68h-2.86Z"/><path class="cls-2" d="M66.78,.13h.69V4.69h2.11l.06,.68h-2.86V.13h0Z"/><path class="cls-2" d="M129.29,.13h.66V5.38h-.66V.13Z"/><path class="cls-2" d="M75.05,56.82v5.26h-.67v-5.23c.21-.01,.41-.02,.67-.04h0Z"/><path class="cls-2" d="M41.31,5.38h-.66V.14l.66-.04V5.38Z"/></g><g id="Lager_2-2"><polyline class="cls-1" points="59.09 59.96 .75 59.96 .75 2.4 8.54 2.4"/><polyline class="cls-1" points="178.64 2.4 186.44 2.4 186.44 59.96 127.77 59.96"/></g></g></svg>