<?xml version="1.0" encoding="UTF-8"?><svg id="Lager_2" xmlns="http://www.w3.org/2000/svg" viewBox="0 0 591.5 197.75"><defs><style>.cls-1{fill:none;stroke:#000;stroke-miterlimit:10;stroke-width:1.5px;}</style></defs><g id="Lager_1-2"><g><path d="M164.82,123V44.87c1.69,.49,2.99,.75,4.19,1.24,8.64,3.55,16.62,8.26,24.12,13.82,4.22,3.13,5.71,7.64,6.54,12.5,.86,5.07,.07,10.03-1.43,14.87-.7,2.26-1.04,4.37-.54,6.81,1.43,6.99-.39,13.62-2.83,20.12-.42,1.13-.91,2.24-1.38,3.35-.45,1.06-1.14,1.27-2.11,.58-2.13-1.52-2.73-5.35-1.15-7.43,.62-.81,1.15-1.69,1.79-2.47,3.62-4.39,2.25-8.69,.32-13.35-1.66-4.01-3.82-7.53-7.19-10.1-2.95-2.25-6.24-4.11-9.53-5.85-1.24-.66-2.92-.49-4.54-.72-.06,.85-.12,1.34-.12,1.84-.12,16.64-.44,33.29-.24,49.92,.07,5.76-2.45,9.53-6.66,12.69-6.48,4.87-13.93,7.28-21.84,8.39-7.66,1.07-15.29,.93-22.49-2.27-2.27-1.01-4.52-2.48-6.23-4.27-3.81-3.96-3.39-9.47,.74-14.08,4.53-5.07,10.41-7.89,16.81-9.68,9.69-2.71,19.42-3.32,29.09,.16,1.42,.51,2.77,1.21,4.69,2.06Zm11.96-59.31c5.06,8.22,11.86,14.3,17.74,21.17,2.49-3.82,1.71-11.03-1.82-14.88-4.14-4.5-9.81-5.34-15.93-6.3Z"/><path d="M330.45,135.72h-21.57c-1.43-4.79-.81-9.54,.08-14.23,1.3-6.88,3-13.68,4.14-20.58,.49-2.95,.33-6.11-.15-9.08-.49-3.02-2.64-3.48-4.77-1.25-3.1,3.25-4.42,7.41-5.5,11.61-2.59,10.06-2.76,20.28-1.75,30.56,.09,.94,.14,1.88,.23,3.05-3.13,0-6.11,0-9.08,0-2.61,0-5.23-.07-7.84,.03-1.29,.05-1.75-.4-1.97-1.66-.81-4.74-.22-9.4,.69-14.04,1.36-6.93,2.92-13.83,4.13-20.78,.39-2.27,.16-4.71-.18-7.01-.16-1.09-1.15-2.73-1.98-2.87-1.01-.17-2.7,.67-3.29,1.59-1.64,2.54-3.21,5.23-4.18,8.08-3.46,10.2-3.61,20.76-2.92,31.38,.11,1.65,.3,3.29,.47,5.11h-21.64c1.98-8.37,3.61-16.81,3.61-25.46,0-8.65-1.61-17.09-3.62-25.56h21.62c-2.39,10.49-4.51,20.9-3.41,30.8,.83-4.4,1.55-9.64,2.85-14.73,1.37-5.37,3.96-10.22,8.17-14,3.34-3,7.17-4.9,11.7-3.21,4.72,1.76,6.15,5.96,6.78,10.49,.17,1.24,.03,2.52,.45,3.92,.26-.59,.52-1.19,.79-1.78,1.83-3.98,4.13-7.6,7.66-10.33,7.48-5.8,15.75-2.41,17.19,6.99,.68,4.46-.07,8.79-.88,13.09-1.91,10.17-.95,19.9,3.93,29.13,.09,.16,.11,.35,.24,.76Z"/><path d="M232.05,104.14c1.98-4.43,2.27-8.95,.51-13.51-.88-2.26-2.34-4.1-4.72-4.98-2.46-.91-4.22,.19-4.8,2.75-.5,2.21-.88,4.55-1.91,6.52-2.23,4.28-8.48,6.07-12.85,4.01-3.39-1.6-4.2-5.38-1.58-8.25,4.08-4.47,9.38-6.67,15.23-7.65,4.89-.83,9.66-.37,14.17,1.81,6.72,3.25,10.34,10.37,9.36,18.3-.32,2.59-.67,5.18-1.01,7.77-1.07,8.09,.48,15.71,4.14,22.94,.23,.45,.42,.93,.61,1.4,.04,.1,0,.24,0,.45h-21.56c-.3-2.15-.59-4.27-.88-6.37-1.26,1.39-2.43,2.96-3.86,4.23-5.96,5.29-14.94,5.19-20.48-.19-2.91-2.83-4.03-6.49-4.12-10.39-.36-16.17,15.56-24.74,27.63-21.49,2.05,.55,3.94,1.68,6.1,2.64Zm-17.48,18.37c.17,1.03,.29,2.43,.67,3.76,.55,1.94,1.46,3.73,3.69,4.2,2.24,.47,3.72-.86,5.09-2.36,.3-.33,.54-.71,.78-1.08,3.09-4.79,4.05-10.23,4.72-15.74,.29-2.38,.38-4.97-2.12-6.25-2.61-1.34-4.82,.17-6.67,1.91-4.35,4.1-5.71,9.46-6.16,15.55Z"/><path d="M378.21,120.25c-.88,1.26-1.86,2.31-2.44,3.54-1.47,3.17-.11,6.89,3.22,9.32,3.03,2.21,7.16,2.12,9.91-.23,3.86-3.28,4.06-8.49,.16-11.79-2.21-1.87-4.77-3.36-7.31-4.78-3.38-1.9-7-3.39-10.31-5.41-4.09-2.5-7.12-6-8.03-10.91-.92-5,1.35-9.75,6.21-12.74,6.56-4.04,13.81-4.99,21.34-4.39,3.78,.3,7.47,1.06,10.65,3.27,4.62,3.21,4.74,8.68,.17,11.97-3.42,2.46-7.3,3.35-11.41,1.89-3.87-1.37-4.72-5-1.98-8.03,1.1-1.22,2.64-2.37,1.76-4.26-.92-1.99-2.92-2.42-4.87-2.36-3.65,.11-5.64,2.7-7.23,5.52-1.23,2.18-1.49,4.64,.48,6.54,1.29,1.24,2.94,2.23,4.6,2.94,4.22,1.79,8.59,3.2,12.79,5.03,4.33,1.89,8.2,4.49,10.27,8.99,3.49,7.6,.14,16.48-8.26,20.17-10.7,4.71-21.37,4.09-31.39-2.24-2.91-1.84-4.99-4.53-5.82-8-1.3-5.42,2.37-9.39,7.91-8.57,3.65,.54,6.7,2.31,9.57,4.53Z"/><path d="M426.24,117.14c.6,5.61,1.76,11.28,6.65,15.19,1.54,1.23,3.72,1.9,5.71,2.27,2.58,.48,4.14-1.08,4.12-3.72-.03-3.61-1.54-6.64-3.9-9.28-.33-.37-.86-.56-1.47-.93,3.22-2.49,6.16-4.29,9.72-4.85,2.73-.43,5.26-.03,7.13,2.18,1.94,2.3,1.87,4.98,.75,7.56-2.72,6.26-7.67,10-14.2,11.33-16.51,3.38-31.14-9.65-30.02-26.48,.67-10.1,4.55-18.44,13.41-23.75,7.74-4.65,16.07-5.19,24.38-1.62,8.36,3.59,10.38,12.88,4.58,19.95-4.16,5.07-9.77,7.9-15.89,9.73-3.51,1.05-7.16,1.6-10.95,2.41Zm-.09-2.45c2.33-.95,4.46-1.48,6.2-2.6,5.31-3.43,8.32-8.58,9.52-14.65,.59-3,.67-6.2,.34-9.24-.31-2.79-2.66-3.67-5.17-2.3-1.15,.63-2.27,1.48-3.12,2.46-6.42,7.4-7.68,16.36-7.75,26.33Z"/><path d="M342.86,137.33c-.92-.24-1.77-.46-2.55-.74-2.06-.76-3.62-2.55-3.83-4.73-.57-5.99,9.16-9.86,14.45-7.41,4.35,2.01,4.9,7.51,.78,10.31-1.59,1.08-3.47,1.74-5.25,2.4-1.15,.43-2.41,.49-3.59,.18Z"/><path d="M361.35,.51V17.11h-2.33V5.93l-.4-.04c-.9,3.21-1.89,6.41-2.65,9.65-.37,1.57-1.07,2.01-2.67,1.49-1.04-3.74-2.11-7.58-3.18-11.41l-.3,.04v11.45l-2.03,.1V.46h3.34c1.11,4.12,2.23,8.32,3.39,12.62,.91-3.36,1.81-6.66,2.71-9.96q.81-2.96,4.12-2.61Z"/><path d="M171.12,6.12h-1.95c-.56-1.04-.89-2.23-1.66-2.95-1.85-1.75-5.02-.94-6.03,1.53-1.1,2.69-1.06,5.5-.04,8.21,.76,2,2.61,2.78,4.69,2.2,1.95-.55,2.72-1.92,2.48-4.7-.66,0-1.35,.01-2.03,0-.62-.01-1.25-.05-1.96-.08v-1.83h6.53v8.95l-2.38-1.17c-3.98,2.9-10.11,1.18-10.33-5.85-.06-2.12,.09-4.38,.75-6.37,1.33-4.01,6.9-5.32,10.14-2.6,1.42,1.2,1.92,2.75,1.79,4.68Z"/><path d="M325.12,9.47c1.12,2.62,2.16,5.06,3.2,7.5-1.86,.7-2.89,.11-3.38-1.63-.23-.79-.61-1.54-.93-2.3q-1.43-3.42-5.52-3.01v7.04h-2.32V.62c2.88,0,5.78-.17,8.65,.06,1.74,.14,2.76,1.55,3.03,3.27,.36,2.34-.26,4.31-2.72,5.52Zm-6.57-6.84V7.62c1.66,0,3.19,.11,4.69-.03,1.47-.14,2.24-1.19,2.19-2.63-.05-1.37-.83-2.26-2.26-2.31-1.5-.06-3.01-.01-4.61-.01Z"/><path d="M88.13,.43c2.71,0,5.31-.13,7.9,.04,1.94,.13,3.3,1.31,3.75,3.28,.55,2.39-.21,4.08-2.66,5.81,1.04,2.44,2.09,4.92,3.15,7.41-1.85,.71-2.88,.13-3.38-1.61-.23-.79-.61-1.54-.93-2.3q-1.43-3.42-5.51-3.02v7.04h-2.33V.43Zm2.36,2.18V7.64c1.56,0,3.01,.06,4.45-.02,1.58-.09,2.45-1.07,2.45-2.6,0-1.47-.86-2.35-2.38-2.4-1.45-.04-2.89,0-4.52,0Z"/><path d="M248.32,197.36h-2.15v-16.58c1.4-.58,2.16,.01,2.86,1.24,1.87,3.32,3.85,6.57,6.06,10.32v-11.65h1.98v16.56c-1.2,.46-1.94,.09-2.58-1.05-1.89-3.37-3.89-6.67-6.17-9.95v11.11Z"/><path d="M452.03,.53c1.47-.51,2.19,.11,2.85,1.27,1.87,3.32,3.85,6.58,6.06,10.31V.47l1.98-.1V17.03c-1.19,.47-1.93,.11-2.57-1.04-1.89-3.37-3.89-6.67-6.16-9.96v11.03l-2.15,.17V.53Z"/><path d="M149.96,.53V17.02c-1.37,.54-2.05-.04-2.67-1.13-1.87-3.32-3.84-6.59-6.1-9.87v11.09h-2.18V.54c1.4-.48,2.18,0,2.85,1.19,1.88,3.36,3.89,6.64,6.12,10.42V.53h1.99Z"/><path d="M510.5,17.31V.38c3.55,.32,7.6-1.36,10.07,2.35,2.44,3.66,2.26,7.87,.23,11.66-2.3,4.29-6.59,2.38-10.3,2.93Zm2.42-14.53V14.83c4.78,.64,6.58-.85,6.72-5.43,.01-.45,.02-.89,0-1.34-.09-4.55-2.02-6.09-6.73-5.29Z"/><path d="M274.15,8.79c.2-1.36,.27-2.64,.58-3.87,.77-3.08,2.96-4.79,6.02-4.87,3.08-.08,5.33,1.52,6.23,4.58,.83,2.81,.82,5.66-.05,8.46-.92,2.97-3.08,4.44-6.16,4.39-3.02-.05-5.19-1.66-5.99-4.64-.36-1.34-.44-2.75-.63-4.05Zm10.46-3.59c-.53-1.83-1.79-2.92-3.77-2.9-1.89,.02-3.36,1.08-3.59,2.83-.32,2.4-.31,4.91,0,7.31,.23,1.76,1.71,2.81,3.59,2.82,1.97,.01,3.24-1.09,3.76-2.92"/><path d="M225.65,185.44h-1.99c-1.07-2.6-2.43-3.51-4.35-2.71-.66,.28-1.44,1.03-1.54,1.66-.1,.62,.43,1.66,.99,1.99,1.29,.77,2.77,1.23,4.18,1.82,2.89,1.21,3.95,3.36,2.87,6.28-.34,.92-1.12,1.93-1.97,2.37-2.4,1.25-4.93,1.15-7.27-.27-1.61-.97-1.84-2.6-1.78-4.48l2.07-.09c1.18,3.02,2.43,4.03,4.56,3.29,.87-.3,1.87-1.26,2.07-2.09,.16-.68-.61-1.88-1.31-2.38-1-.71-2.32-.99-3.49-1.47-2.8-1.12-4-2.93-3.56-5.35,.42-2.29,2.4-3.71,5.27-3.76,3.5-.06,5.41,1.75,5.25,5.17Z"/><path d="M540.54,5.21c-.38,.04-.63,.08-.87,.08-.38,.01-.75,0-1.09,0-1.09-2.68-2.44-3.59-4.38-2.77-.66,.28-1.44,1.03-1.53,1.66-.09,.62,.43,1.66,1,1.99,1.29,.77,2.77,1.23,4.18,1.82,2.89,1.21,3.94,3.35,2.86,6.29-.32,.88-1.02,1.84-1.82,2.27-2.45,1.35-5.01,1.24-7.44-.18-1.36-.79-1.81-2.1-1.68-4.45h2.04c1.11,2.9,2.38,3.91,4.51,3.17,.86-.3,1.87-1.26,2.06-2.09,.16-.68-.62-1.88-1.31-2.38-1-.71-2.32-.99-3.5-1.46-2.8-1.12-4-2.93-3.55-5.36,.42-2.29,2.41-3.7,5.27-3.75,3.51-.06,5.41,1.75,5.24,5.14Z"/><path d="M389.65,11.91h2.16c.93,2.92,2.48,4.03,4.72,3.12,.8-.33,1.68-1.28,1.83-2.08,.13-.67-.57-1.83-1.23-2.24-1.27-.79-2.8-1.18-4.19-1.79-2.57-1.14-3.56-3.23-2.77-5.71,.77-2.43,3.51-3.58,6.85-2.88,2.6,.55,3.7,2.08,3.41,4.89l-1.99,.11c-.42-2.08-1.59-3.42-3.81-2.9-.78,.18-1.82,.98-1.97,1.67-.14,.66,.53,1.83,1.18,2.24,1.21,.77,2.68,1.13,4.02,1.69,2.51,1.05,3.42,2.6,3.1,5.25-.29,2.38-1.63,3.64-4.32,4.04-4.48,.67-6.92-1.13-7.01-5.4Z"/><path d="M60.29,5.21l-1.8,.1c-1.29-2.63-2.25-3.42-4-2.9-.79,.24-1.82,.99-1.97,1.68-.14,.66,.54,1.8,1.19,2.25,1.02,.7,2.31,1.01,3.49,1.47,2.98,1.16,3.97,2.65,3.62,5.47-.31,2.52-1.8,3.85-4.89,4.12-3.32,.29-6.75-.98-6.42-5.42h2.17c.89,2.85,2.46,3.97,4.71,3.05,.8-.33,1.68-1.29,1.83-2.09,.13-.67-.57-1.83-1.24-2.24-1.27-.79-2.8-1.17-4.19-1.79-2.56-1.14-3.56-3.23-2.76-5.72,.78-2.43,3.52-3.58,6.86-2.87,2.6,.55,3.7,2.09,3.4,4.89Z"/><path d="M472.32,.44h10.17V2.59h-7.86V7.54c1.88,0,3.64,.06,5.4-.02,1.4-.06,1.87,.47,1.39,2.12-1.71,0-3.53,.05-5.34-.02-1.1-.04-1.67,.25-1.59,1.48,.08,1.19,.02,2.4,.02,3.83h8.18c.06,.83,.1,1.43,.15,2.16h-10.52V.44Z"/><path d="M500.66,7.47v2.18c-1.91,0-3.74,.04-5.57-.02-1.06-.03-1.51,.32-1.46,1.42,.06,1.25,.01,2.51,.01,3.92h8.15c.07,.75,.12,1.35,.19,2.1h-10.58V.53h10.26V2.55h-7.91V7.47h6.89Z"/><path d="M288.56,195.22h8.21v2.11h-10.44v-16.58h10.25v1.99h-7.89v4.98h6.88v2.13c-1.89,0-3.72,.04-5.54-.02-1.03-.03-1.54,.27-1.48,1.4,.07,1.25,.02,2.51,.02,3.98Z"/><path d="M79.63,2.59h-7.88V7.51h6.87v2.14c-1.87,0-3.7,.04-5.52-.01-1.02-.03-1.55,.25-1.49,1.38,.07,1.25,.02,2.51,.02,3.99h8.21v2.12h-10.44V.47h10.24V2.59Z"/><path d="M350.24,192.14h2.07c.19,.77,.22,1.61,.6,2.2,.37,.56,1.1,1.13,1.71,1.18,.49,.04,1.32-.61,1.5-1.13,.42-1.22,.54-2.54,.81-3.97-3.22,1.2-4.95,.93-6.09-.77-1.53-2.3-1.36-6.25,.35-8.06,2.05-2.17,5.93-1.62,6.98,1.22,1.54,4.19,1.38,8.51-.18,12.7-.66,1.77-2.28,2.31-4.07,2.19-1.95-.13-2.9-1.43-3.39-3.13-.2-.71-.19-1.48-.3-2.41Zm6.55-6.22c-.25-.9-.34-1.74-.71-2.44-.77-1.44-2.54-1.5-3.36-.11-.93,1.59-.92,3.28,.03,4.86,.73,1.21,2.39,1.27,3.15,.09,.46-.71,.61-1.61,.89-2.41Z"/><path d="M333.48,192.14h2.01c.12,.54,.1,1.19,.4,1.6,.51,.7,1.22,1.74,1.83,1.73,.63-.01,1.48-1.01,1.79-1.76,.4-.95,.35-2.08,.52-3.33-.8,.32-1.36,.6-1.95,.76-1.71,.47-3.78-.28-4.25-1.97-.5-1.82-.69-3.85-.45-5.72,.25-1.98,2.07-3.13,4-3.17,2.04-.04,3.67,1.05,4.24,3.17,1.01,3.76,.98,7.57-.17,11.3-.7,2.27-2.33,3.22-4.51,2.94-1.88-.24-3.06-1.57-3.36-3.82-.07-.5-.07-1-.12-1.71Zm6.37-6.19c-.09-.7,.02-1.27-.23-1.54-.65-.73-1.39-1.76-2.19-1.85-.58-.07-1.69,1.06-1.89,1.83-.28,1.08-.11,2.37,.21,3.47,.16,.54,1.1,1.21,1.66,1.19,.66-.02,1.47-.6,1.9-1.18,.41-.56,.41-1.41,.54-1.91Z"/><path d="M203.59,17.14h-2.44c-.49-1.15-.7-3.02-1.56-3.39-1.41-.61-3.23-.29-4.88-.27-2.47,.03-1.26,2.58-2.67,3.65h-1.92c.12-.55,.2-1.02,.34-1.47,1.49-4.73,3.03-9.45,4.46-14.2,.33-1.11,.99-1.1,1.85-1.1,.86,0,1.53-.01,1.87,1.1,1.57,5.17,3.24,10.3,4.96,15.69Zm-9.38-5.9h4.93c-.79-2.62-1.52-5.06-2.25-7.49l-.36-.03c-.75,2.43-1.5,4.87-2.32,7.52Z"/><path d="M432.2,6.46h-2.07c-.09-.33-.18-.62-.25-.92-.54-2.19-1.57-3.18-3.39-3.24-1.85-.07-3.45,.99-3.74,3.1-.31,2.23-.3,4.56,0,6.78,.29,2.1,1.9,3.16,3.75,3.09,1.91-.07,3-1.13,3.48-3.38,.05-.24,.11-.47,.17-.77h1.92c.52,2.25-.36,4.42-2.22,5.55-3.45,2.09-8.17,.43-9.35-3.41-.98-3.18-.98-6.43,.21-9.55,1.14-2.98,4.19-4.28,7.59-3.4,2.78,.71,4.2,2.92,3.89,6.15Z"/><path d="M277.71,186.7h-2.13c-.13-.52-.27-1.05-.41-1.58-.41-1.51-1.39-2.41-2.95-2.58-1.61-.17-3,.4-3.63,1.9-1.26,2.99-1.25,6.09,0,9.08,.63,1.5,2.01,2.07,3.62,1.93,1.56-.14,2.58-1,3.03-2.49,.15-.48,.21-.99,.33-1.6h1.99c.44,2.71-.73,4.98-3.03,5.89-2.84,1.13-6.57,.27-7.82-2.13-2.09-4.02-2.08-8.24,0-12.26,1.2-2.33,4.34-3.15,7.27-2.28,2.51,.74,3.8,2.78,3.72,6.12Z"/><path d="M370.01,.47h2.35c0,3.27-.01,6.44,0,9.61,0,.82,.07,1.65,.18,2.47,.25,1.8,1.37,2.68,3.14,2.7,1.72,.02,3-1.15,3.06-3,.11-3.31,.06-6.63,.08-9.94,0-.56,0-1.13,0-1.81h2.22c0,4.34,.16,8.66-.06,12.96-.13,2.48-2.25,3.92-5.02,4.04-2.91,.13-5.01-1.13-5.58-3.59-.31-1.34-.33-2.77-.35-4.17-.05-3.05-.01-6.09-.01-9.28Z"/><path d="M296.16,.46h2.35c0,2.99-.01,5.97,0,8.94,0,1.02,.01,2.05,.17,3.04,.3,1.89,1.52,2.9,3.23,2.82,1.72-.08,2.93-1.2,2.99-3.1,.1-3.31,.05-6.63,.07-9.94,0-.56,.06-1.12,.09-1.76h2.02c0,4.48,.22,8.98-.09,13.45-.16,2.34-2.43,3.58-5.17,3.59-2.85,.02-4.8-1.22-5.32-3.67-.32-1.54-.31-3.16-.34-4.74-.05-2.8-.01-5.6-.01-8.63Z"/><path d="M111.82,17.04c-1.65-5.44-3.32-10.93-5.03-16.58h2.61c1.29,4.45,2.59,8.88,4.04,13.86,.86-2.85,1.58-5.22,2.29-7.58,.46-1.52,1-3.02,1.33-4.57,.33-1.55,1.04-2.22,2.81-1.56-.58,1.97-1.15,3.96-1.75,5.94-.83,2.73-1.69,5.46-2.52,8.19q-.82,2.67-3.77,2.3Z"/><path d="M369.06,186.42h-2.09c-.35-1.87-.24-3.59,1.19-4.95,1.45-1.38,3.22-1.43,5.01-.86,2.43,.77,3.45,4.02,2,6.8-.76,1.45-1.86,2.72-2.87,4.03-.88,1.14-1.83,2.21-3.02,3.64h6.44c.04,.82,.07,1.47,.1,2.24h-9.15c-.11-2.3,.97-4.02,2.35-5.64,1.24-1.45,2.46-2.92,3.58-4.46,.43-.59,.68-1.39,.77-2.12,.15-1.23-.19-2.35-1.62-2.6-1.52-.27-2.23,.64-2.51,1.98-.11,.56-.11,1.14-.19,1.93Z"/><path d="M267.16,.59c-2.49,5.24-6.92,9.86-5.08,16.49h-2.82c1.83-6.54-2.45-11.21-5.09-16.47,1.72-.58,2.72-.24,3.45,1.36,.88,1.94,2.04,3.76,3.23,5.91,1.16-2.15,2.26-4,3.18-5.93,.64-1.36,1.46-1.98,3.13-1.36Z"/><path d="M316.45,197.32v-1.81h3.7v-11.7c-.98,0-1.98,.04-2.96-.03-.28-.02-.71-.36-.75-.6-.04-.28,.2-.81,.44-.89,1.78-.63,3.58-1.18,5.63-1.83v14.9c1.26,.07,2.32,.12,3.49,.18v1.77h-9.56Z"/><path d="M227.39,17.1V.47l2.21-.1V14.95h6.72c.06,.82,.1,1.42,.15,2.15h-9.08Z"/><path d="M210.57,.45h2.18V14.93h6.72l.18,2.16h-9.08V.45Z"/><path d="M409.17,.45h2.1V17.12h-2.1V.45Z"/><path d="M236.82,180.56v16.72h-2.14v-16.61c.68-.04,1.3-.07,2.14-.12Z"/><path d="M129.64,17.12h-2.11V.48l2.11-.12V17.12Z"/></g><g id="Lager_2-2"><polyline class="cls-1" points="186.11 190.54 .75 190.54 .75 7.64 25.51 7.64"/><polyline class="cls-1" points="565.97 7.64 590.75 7.64 590.75 190.54 404.34 190.54"/></g></g></svg>