<svg width="182" height="16" viewBox="0 0 182 16" fill="none" xmlns="http://www.w3.org/2000/svg">
<path d="M4.03363 7.72727C4.03363 6.98864 4.21355 6.31629 4.5734 5.71023C4.93325 5.10417 5.4162 4.62121 6.02226 4.26136C6.62832 3.90151 7.30067 3.72159 8.03931 3.72159C8.68325 3.72159 9.27984 3.86364 9.82908 4.14773C10.3783 4.43182 10.8305 4.81771 11.1856 5.3054C11.5407 5.79309 11.7538 6.34233 11.8248 6.95312H9.71545C9.64442 6.59801 9.44793 6.30919 9.12596 6.08665C8.80872 5.85937 8.44651 5.74574 8.03931 5.74574C7.67472 5.74574 7.34092 5.83333 7.03789 6.00852C6.73959 6.18371 6.50048 6.42282 6.32056 6.72585C6.14063 7.02415 6.05067 7.35559 6.05067 7.72017C6.05067 8.08475 6.14063 8.41856 6.32056 8.72159C6.50048 9.01989 6.73959 9.259 7.03789 9.43892C7.34092 9.61884 7.67472 9.70881 8.03931 9.70881C8.44651 9.70881 8.79925 9.59754 9.09755 9.375C9.39584 9.14773 9.58287 8.85653 9.65863 8.50142H11.768C11.697 9.11222 11.4886 9.66146 11.143 10.1491C10.7974 10.6368 10.3546 11.0227 9.81488 11.3068C9.2751 11.5909 8.68325 11.733 8.03931 11.733C7.30067 11.733 6.62832 11.553 6.02226 11.1932C5.4162 10.8333 4.93325 10.3504 4.5734 9.74432C4.21355 9.13826 4.03363 8.46591 4.03363 7.72727ZM7.98249 15.2273C6.95029 15.2273 5.97965 15.0331 5.07056 14.6449C4.1662 14.2566 3.36838 13.7192 2.67709 13.0327C1.99054 12.3414 1.45077 11.5436 1.05777 10.6392C0.669516 9.73485 0.477755 8.7642 0.48249 7.72727C0.487225 6.69034 0.683721 5.7197 1.07198 4.81534C1.46497 3.91098 2.00474 3.11553 2.6913 2.42898C3.37785 1.73769 4.1733 1.19792 5.07766 0.809659C5.98202 0.421401 6.95029 0.227273 7.98249 0.227273C9.01942 0.227273 9.99007 0.421401 10.8944 0.809659C11.8035 1.19792 12.599 1.73769 13.2808 2.42898C13.9673 3.11553 14.5047 3.91098 14.893 4.81534C15.2813 5.7197 15.4778 6.69034 15.4825 7.72727C15.4872 8.7642 15.2955 9.73485 14.9072 10.6392C14.5189 11.5436 13.9815 12.3414 13.295 13.0327C12.6084 13.7192 11.8106 14.2566 10.9015 14.6449C9.99243 15.0331 9.01942 15.2273 7.98249 15.2273ZM7.98249 12.8622C8.69745 12.8622 9.36507 12.7296 9.98533 12.4645C10.6103 12.1993 11.1572 11.8324 11.626 11.3636C12.0947 10.8902 12.4617 10.3456 12.7268 9.73011C12.992 9.10985 13.1222 8.4446 13.1174 7.73438C13.1174 7.01941 12.9825 6.3518 12.7126 5.73153C12.4475 5.10653 12.0805 4.55966 11.6118 4.09091C11.143 3.62216 10.5985 3.25521 9.97823 2.99006C9.35796 2.7249 8.69272 2.59233 7.98249 2.59233C7.277 2.59233 6.61412 2.7249 5.99385 2.99006C5.37832 3.25521 4.83382 3.62453 4.36033 4.09801C3.89158 4.56676 3.52226 5.11364 3.25238 5.73864C2.98249 6.3589 2.84755 7.02415 2.84755 7.73438C2.84281 8.43987 2.97302 9.10275 3.23817 9.72301C3.50806 10.3385 3.87738 10.883 4.34613 11.3565C4.81961 11.8253 5.36649 12.1946 5.98675 12.4645C6.60702 12.7296 7.27226 12.8622 7.98249 12.8622ZM30.0716 0.454545V15H26.9963V3.37358H26.911L23.5801 5.46165V2.73438L27.1809 0.454545H30.0716ZM39.1914 0.255681C39.9395 0.255681 40.6592 0.381155 41.3505 0.632101C42.0465 0.883049 42.6667 1.28314 43.2113 1.83239C43.7605 2.38163 44.1937 3.1108 44.511 4.01989C44.8329 4.92424 44.9963 6.03456 45.001 7.35085C45.001 8.58665 44.8613 9.68987 44.582 10.6605C44.3074 11.6264 43.912 12.4479 43.3959 13.125C42.8798 13.8021 42.2572 14.3182 41.528 14.6733C40.7988 15.0237 39.9845 15.1989 39.0848 15.1989C38.1142 15.1989 37.2572 15.0118 36.5138 14.6378C35.7704 14.259 35.1715 13.7453 34.7169 13.0966C34.2671 12.4432 33.9949 11.7093 33.9002 10.8949H36.9328C37.0512 11.4252 37.2998 11.8371 37.6786 12.1307C38.0574 12.4195 38.5261 12.5639 39.0848 12.5639C40.0318 12.5639 40.7515 12.152 41.2439 11.3281C41.7363 10.4995 41.9849 9.36553 41.9897 7.92614H41.8902C41.6724 8.35227 41.3789 8.71922 41.0096 9.02699C40.6402 9.33002 40.2165 9.56439 39.7382 9.73011C39.2648 9.89583 38.7605 9.97869 38.2255 9.97869C37.3685 9.97869 36.6038 9.77746 35.9314 9.375C35.2591 8.97254 34.7288 8.41856 34.3405 7.71307C33.9523 7.00758 33.7581 6.20265 33.7581 5.2983C33.7534 4.32292 33.9783 3.45407 34.4328 2.69176C34.8874 1.92945 35.5219 1.33286 36.3363 0.901989C37.1554 0.466382 38.1071 0.250946 39.1914 0.255681ZM39.2127 2.67045C38.7345 2.67045 38.3083 2.78409 37.9343 3.01136C37.5649 3.23864 37.2714 3.54403 37.0536 3.92756C36.8405 4.31108 36.7363 4.73958 36.7411 5.21307C36.7411 5.69129 36.8453 6.12216 37.0536 6.50568C37.2667 6.88447 37.5555 7.1875 37.9201 7.41477C38.2894 7.63731 38.7108 7.74858 39.1843 7.74858C39.5394 7.74858 39.8685 7.68229 40.1715 7.54972C40.4745 7.41714 40.7373 7.23485 40.9598 7.00284C41.1871 6.7661 41.3647 6.49384 41.4925 6.18608C41.6203 5.87831 41.6843 5.55161 41.6843 5.20597C41.6795 4.74669 41.5706 4.32528 41.3576 3.94176C41.1445 3.55824 40.8509 3.25047 40.4769 3.01847C40.1028 2.78646 39.6814 2.67045 39.2127 2.67045ZM52.7945 0.255681C53.5426 0.255681 54.2623 0.381155 54.9536 0.632101C55.6496 0.883049 56.2699 1.28314 56.8144 1.83239C57.3636 2.38163 57.7969 3.1108 58.1141 4.01989C58.4361 4.92424 58.5994 6.03456 58.6042 7.35085C58.6042 8.58665 58.4645 9.68987 58.1851 10.6605C57.9105 11.6264 57.5151 12.4479 56.999 13.125C56.4829 13.8021 55.8603 14.3182 55.1311 14.6733C54.402 15.0237 53.5876 15.1989 52.688 15.1989C51.7173 15.1989 50.8603 15.0118 50.1169 14.6378C49.3736 14.259 48.7746 13.7453 48.3201 13.0966C47.8702 12.4432 47.598 11.7093 47.5033 10.8949H50.536C50.6543 11.4252 50.9029 11.8371 51.2817 12.1307C51.6605 12.4195 52.1292 12.5639 52.688 12.5639C53.6349 12.5639 54.3546 12.152 54.847 11.3281C55.3395 10.4995 55.5881 9.36553 55.5928 7.92614H55.4934C55.2756 8.35227 54.982 8.71922 54.6127 9.02699C54.2434 9.33002 53.8196 9.56439 53.3414 9.73011C52.8679 9.89583 52.3636 9.97869 51.8286 9.97869C50.9716 9.97869 50.2069 9.77746 49.5345 9.375C48.8622 8.97254 48.3319 8.41856 47.9436 7.71307C47.5554 7.00758 47.3613 6.20265 47.3613 5.2983C47.3565 4.32292 47.5814 3.45407 48.036 2.69176C48.4905 1.92945 49.125 1.33286 49.9394 0.901989C50.7585 0.466382 51.7102 0.250946 52.7945 0.255681ZM52.8158 2.67045C52.3376 2.67045 51.9114 2.78409 51.5374 3.01136C51.1681 3.23864 50.8745 3.54403 50.6567 3.92756C50.4436 4.31108 50.3395 4.73958 50.3442 5.21307C50.3442 5.69129 50.4484 6.12216 50.6567 6.50568C50.8698 6.88447 51.1586 7.1875 51.5232 7.41477C51.8925 7.63731 52.3139 7.74858 52.7874 7.74858C53.1425 7.74858 53.4716 7.68229 53.7746 7.54972C54.0776 7.41714 54.3404 7.23485 54.563 7.00284C54.7902 6.7661 54.9678 6.49384 55.0956 6.18608C55.2235 5.87831 55.2874 5.55161 55.2874 5.20597C55.2827 4.74669 55.1738 4.32528 54.9607 3.94176C54.7476 3.55824 54.4541 3.25047 54.08 3.01847C53.7059 2.78646 53.2845 2.67045 52.8158 2.67045ZM66.7172 15.1989C65.9691 15.1941 65.247 15.0687 64.551 14.8224C63.8597 14.5762 63.2395 14.1761 62.6902 13.6222C62.141 13.0682 61.7054 12.3343 61.3834 11.4205C61.0662 10.5066 60.9076 9.38447 60.9076 8.05398C60.9123 6.83239 61.052 5.741 61.3266 4.77983C61.606 3.81392 62.0037 2.99479 62.5198 2.32244C63.0406 1.65009 63.6632 1.13873 64.3877 0.788351C65.1121 0.433238 65.9241 0.255681 66.8238 0.255681C67.7944 0.255681 68.6514 0.445075 69.3948 0.823864C70.1381 1.19792 70.7347 1.70691 71.1846 2.35085C71.6391 2.99479 71.9137 3.71686 72.0084 4.51705H68.9757C68.8574 4.01042 68.6088 3.61269 68.23 3.32386C67.8512 3.03504 67.3825 2.89062 66.8238 2.89062C65.8768 2.89062 65.1571 3.30256 64.6647 4.12642C64.177 4.95028 63.9284 6.07008 63.9189 7.4858H64.0184C64.2362 7.05492 64.5297 6.68797 64.899 6.38494C65.2731 6.07718 65.6969 5.8428 66.1703 5.68182C66.6486 5.5161 67.1528 5.43324 67.6831 5.43324C68.5449 5.43324 69.3119 5.63684 69.9843 6.04403C70.6566 6.4465 71.1869 7.00047 71.5752 7.70597C71.9634 8.41146 72.1576 9.21875 72.1576 10.1278C72.1576 11.1127 71.9279 11.9886 71.4686 12.7557C71.0141 13.5227 70.3773 14.1241 69.5581 14.5597C68.7437 14.9905 67.7968 15.2036 66.7172 15.1989ZM66.703 12.7841C67.1765 12.7841 67.6003 12.6705 67.9743 12.4432C68.3484 12.2159 68.6419 11.9081 68.855 11.5199C69.0681 11.1316 69.1746 10.696 69.1746 10.2131C69.1746 9.73011 69.0681 9.29687 68.855 8.91335C68.6467 8.52983 68.3578 8.22443 67.9885 7.99716C67.6192 7.76989 67.1978 7.65625 66.7243 7.65625C66.3692 7.65625 66.0401 7.72254 65.7371 7.85511C65.4388 7.98769 65.176 8.17235 64.9488 8.40909C64.7262 8.64583 64.551 8.92045 64.4232 9.23295C64.2953 9.54072 64.2314 9.86979 64.2314 10.2202C64.2314 10.6889 64.338 11.1174 64.551 11.5057C64.7688 11.8939 65.0624 12.2041 65.4317 12.4361C65.8058 12.6681 66.2295 12.7841 66.703 12.7841ZM81.5632 6.52699V8.92756H74.9297V6.52699H81.5632ZM84.1028 15V12.7841L89.2804 7.99006C89.7207 7.56392 90.09 7.1804 90.3883 6.83949C90.6913 6.49858 90.921 6.16477 91.0772 5.83807C91.2335 5.50663 91.3116 5.14915 91.3116 4.76562C91.3116 4.33949 91.2145 3.97254 91.0204 3.66477C90.8263 3.35227 90.5611 3.11316 90.225 2.94744C89.8888 2.77699 89.5076 2.69176 89.0815 2.69176C88.6364 2.69176 88.2482 2.78172 87.9167 2.96165C87.5853 3.14157 87.3296 3.39962 87.1497 3.7358C86.9698 4.07197 86.8798 4.47206 86.8798 4.93608H83.9608C83.9608 3.98437 84.1762 3.15814 84.6071 2.45739C85.0379 1.75663 85.6416 1.21449 86.4181 0.830965C87.1947 0.447443 88.0895 0.255681 89.1028 0.255681C90.1445 0.255681 91.0512 0.44034 91.823 0.809659C92.5995 1.17424 93.2032 1.68087 93.6341 2.32955C94.0649 2.97822 94.2804 3.72159 94.2804 4.55966C94.2804 5.1089 94.1715 5.65104 93.9537 6.18608C93.7406 6.72112 93.3594 7.31534 92.8102 7.96875C92.2609 8.61742 91.4868 9.39631 90.4877 10.3054L88.3642 12.3864V12.4858H94.4721V15H84.1028ZM102.804 15.3196C101.582 15.3149 100.531 15.0142 99.6502 14.4176C98.7742 13.821 98.0995 12.9569 97.626 11.8253C97.1573 10.6937 96.9253 9.33239 96.93 7.74148C96.93 6.1553 97.1644 4.8035 97.6331 3.68608C98.1066 2.56865 98.7813 1.71875 99.6573 1.13636C100.538 0.549242 101.587 0.255681 102.804 0.255681C104.02 0.255681 105.067 0.549242 105.943 1.13636C106.823 1.72348 107.501 2.57576 107.974 3.69318C108.448 4.80587 108.682 6.1553 108.677 7.74148C108.677 9.33712 108.44 10.7008 107.967 11.8324C107.498 12.964 106.826 13.8281 105.95 14.4247C105.074 15.0213 104.025 15.3196 102.804 15.3196ZM102.804 12.7699C103.637 12.7699 104.302 12.3509 104.799 11.5128C105.296 10.6747 105.543 9.41761 105.538 7.74148C105.538 6.63826 105.424 5.7197 105.197 4.9858C104.975 4.25189 104.657 3.70028 104.245 3.33097C103.838 2.96165 103.358 2.77699 102.804 2.77699C101.975 2.77699 101.312 3.19129 100.815 4.01989C100.318 4.84848 100.067 6.08901 100.062 7.74148C100.062 8.8589 100.173 9.79167 100.396 10.5398C100.623 11.2831 100.943 11.8419 101.355 12.2159C101.767 12.5852 102.25 12.7699 102.804 12.7699ZM111.27 15V12.7841L116.448 7.99006C116.888 7.56392 117.257 7.1804 117.555 6.83949C117.859 6.49858 118.088 6.16477 118.244 5.83807C118.401 5.50663 118.479 5.14915 118.479 4.76562C118.479 4.33949 118.382 3.97254 118.188 3.66477C117.993 3.35227 117.728 3.11316 117.392 2.94744C117.056 2.77699 116.675 2.69176 116.249 2.69176C115.804 2.69176 115.415 2.78172 115.084 2.96165C114.752 3.14157 114.497 3.39962 114.317 3.7358C114.137 4.07197 114.047 4.47206 114.047 4.93608H111.128C111.128 3.98437 111.343 3.15814 111.774 2.45739C112.205 1.75663 112.809 1.21449 113.585 0.830965C114.362 0.447443 115.257 0.255681 116.27 0.255681C117.312 0.255681 118.218 0.44034 118.99 0.809659C119.767 1.17424 120.37 1.68087 120.801 2.32955C121.232 2.97822 121.448 3.72159 121.448 4.55966C121.448 5.1089 121.339 5.65104 121.121 6.18608C120.908 6.72112 120.527 7.31534 119.977 7.96875C119.428 8.61742 118.654 9.39631 117.655 10.3054L115.531 12.3864V12.4858H121.639V15H111.27ZM124.268 15V12.7841L129.445 7.99006C129.886 7.56392 130.255 7.1804 130.553 6.83949C130.856 6.49858 131.086 6.16477 131.242 5.83807C131.398 5.50663 131.476 5.14915 131.476 4.76562C131.476 4.33949 131.379 3.97254 131.185 3.66477C130.991 3.35227 130.726 3.11316 130.39 2.94744C130.054 2.77699 129.672 2.69176 129.246 2.69176C128.801 2.69176 128.413 2.78172 128.082 2.96165C127.75 3.14157 127.494 3.39962 127.315 3.7358C127.135 4.07197 127.045 4.47206 127.045 4.93608H124.126C124.126 3.98437 124.341 3.15814 124.772 2.45739C125.203 1.75663 125.806 1.21449 126.583 0.830965C127.36 0.447443 128.254 0.255681 129.268 0.255681C130.309 0.255681 131.216 0.44034 131.988 0.809659C132.764 1.17424 133.368 1.68087 133.799 2.32955C134.23 2.97822 134.445 3.72159 134.445 4.55966C134.445 5.1089 134.336 5.65104 134.118 6.18608C133.905 6.72112 133.524 7.31534 132.975 7.96875C132.426 8.61742 131.652 9.39631 130.653 10.3054L128.529 12.3864V12.4858H134.637V15H124.268ZM148.203 0.454545H151.243V10.5966C151.243 11.5341 151.032 12.3485 150.611 13.0398C150.194 13.7311 149.614 14.2637 148.871 14.6378C148.128 15.0118 147.263 15.1989 146.279 15.1989C145.403 15.1989 144.607 15.045 143.892 14.7372C143.182 14.4247 142.619 13.9512 142.202 13.3168C141.785 12.6776 141.579 11.875 141.584 10.9091H144.645C144.655 11.2926 144.733 11.6217 144.879 11.8963C145.031 12.1662 145.237 12.3745 145.497 12.5213C145.762 12.6634 146.075 12.7344 146.435 12.7344C146.814 12.7344 147.133 12.6539 147.394 12.4929C147.659 12.3272 147.86 12.0857 147.997 11.7685C148.135 11.4512 148.203 11.0606 148.203 10.5966V0.454545ZM157.24 15.206C156.544 15.206 155.923 15.0852 155.379 14.8438C154.834 14.5975 154.403 14.2353 154.086 13.7571C153.774 13.2741 153.618 12.6728 153.618 11.9531C153.618 11.3471 153.729 10.8381 153.951 10.4261C154.174 10.0142 154.477 9.68277 154.86 9.43182C155.244 9.18087 155.68 8.99148 156.167 8.86364C156.66 8.7358 157.176 8.64583 157.716 8.59375C158.35 8.52746 158.861 8.46591 159.25 8.40909C159.638 8.34754 159.92 8.25758 160.095 8.1392C160.27 8.02083 160.358 7.84564 160.358 7.61364V7.57102C160.358 7.12121 160.216 6.7732 159.931 6.52699C159.652 6.28078 159.254 6.15767 158.738 6.15767C158.194 6.15767 157.76 6.27841 157.439 6.51989C157.117 6.75663 156.903 7.05492 156.799 7.41477L154.001 7.1875C154.143 6.52462 154.422 5.9517 154.839 5.46875C155.256 4.98106 155.793 4.60701 156.451 4.34659C157.114 4.08144 157.881 3.94886 158.752 3.94886C159.359 3.94886 159.939 4.01989 160.493 4.16193C161.051 4.30398 161.546 4.52415 161.977 4.82244C162.412 5.12074 162.756 5.50426 163.007 5.97301C163.258 6.43703 163.383 6.99337 163.383 7.64205V15H160.514V13.4872H160.429C160.253 13.8281 160.019 14.1288 159.725 14.3892C159.432 14.6449 159.079 14.8461 158.667 14.9929C158.255 15.1349 157.779 15.206 157.24 15.206ZM158.106 13.1179C158.551 13.1179 158.944 13.0303 159.285 12.8551C159.626 12.6752 159.894 12.4337 160.088 12.1307C160.282 11.8277 160.379 11.4844 160.379 11.1009V9.94318C160.284 10.0047 160.154 10.0616 159.988 10.1136C159.827 10.161 159.645 10.206 159.441 10.2486C159.238 10.2865 159.034 10.322 158.831 10.3551C158.627 10.3835 158.442 10.4096 158.277 10.4332C157.921 10.4853 157.611 10.5682 157.346 10.6818C157.081 10.7955 156.875 10.9493 156.728 11.1435C156.582 11.3329 156.508 11.5696 156.508 11.8537C156.508 12.2656 156.657 12.5805 156.956 12.7983C157.259 13.0114 157.642 13.1179 158.106 13.1179ZM166.13 15V4.09091H169.014V6.01562H169.142C169.369 5.37642 169.748 4.87216 170.278 4.50284C170.808 4.13352 171.443 3.94886 172.182 3.94886C172.93 3.94886 173.567 4.13589 174.092 4.50994C174.618 4.87926 174.968 5.38116 175.143 6.01562H175.257C175.479 5.39062 175.882 4.8911 176.464 4.51705C177.051 4.13826 177.745 3.94886 178.545 3.94886C179.563 3.94886 180.389 4.2732 181.024 4.92188C181.663 5.56581 181.983 6.47964 181.983 7.66335V15H178.964V8.25994C178.964 7.65388 178.803 7.19934 178.481 6.89631C178.159 6.59328 177.757 6.44176 177.274 6.44176C176.725 6.44176 176.296 6.61695 175.988 6.96733C175.681 7.31297 175.527 7.76989 175.527 8.33807V15H172.594V8.19602C172.594 7.66098 172.44 7.23485 172.132 6.91761C171.829 6.60038 171.429 6.44176 170.932 6.44176C170.595 6.44176 170.292 6.52699 170.022 6.69744C169.757 6.86316 169.547 7.09754 169.39 7.40057C169.234 7.69886 169.156 8.04924 169.156 8.4517V15H166.13Z" fill="white"/>
</svg>
