<svg width="17" height="18" viewBox="0 0 17 18" fill="none" xmlns="http://www.w3.org/2000/svg">
<g clip-path="url(#clip0_95_848)">
<path d="M3.45432 8.41754C3.3655 8.48252 3.29287 8.56947 3.24269 8.6709C3.19252 8.77233 3.1663 8.8852 3.1663 8.99979C3.1663 9.11437 3.19252 9.22724 3.24269 9.32867C3.29287 9.4301 3.3655 9.51705 3.45432 9.58204L12.121 15.957C12.221 16.0308 12.338 16.0741 12.4595 16.0822C12.581 16.0902 12.7022 16.0627 12.8101 16.0027C12.9179 15.9427 13.0082 15.8524 13.0711 15.7417C13.134 15.631 13.1672 15.5041 13.167 15.3748L13.167 2.62479C13.1665 2.49576 13.1329 2.36932 13.0698 2.25906C13.0067 2.1488 12.9166 2.0589 12.809 1.99902C12.7014 1.93915 12.5805 1.91156 12.4593 1.91922C12.3381 1.92689 12.2211 1.96952 12.121 2.04254L3.45432 8.41754Z" fill="white"/>
</g>
<defs>
<clipPath id="clip0_95_848">
<rect width="17" height="16" fill="white" transform="translate(16.5 0.5) rotate(90)"/>
</clipPath>
</defs>
</svg>
