<svg width="17" height="16" viewBox="0 0 17 16" fill="none" xmlns="http://www.w3.org/2000/svg">
<path d="M7.91754 13.0462C7.98252 13.135 8.06947 13.2076 8.1709 13.2578C8.27233 13.308 8.3852 13.3342 8.49979 13.3342C8.61437 13.3342 8.72724 13.308 8.82867 13.2578C8.9301 13.2076 9.01706 13.135 9.08204 13.0462L15.457 4.3795C15.5308 4.27953 15.5741 4.16245 15.5822 4.04097C15.5902 3.91948 15.5627 3.79824 15.5027 3.69043C15.4427 3.58261 15.3524 3.49233 15.2417 3.4294C15.131 3.36647 15.0041 3.33331 14.8748 3.3335H2.12479C1.99576 3.334 1.86932 3.36759 1.75906 3.43067C1.6488 3.49375 1.5589 3.58392 1.49902 3.69149C1.43915 3.79906 1.41156 3.91996 1.41922 4.04118C1.42689 4.16241 1.46952 4.27937 1.54254 4.3795L7.91754 13.0462Z" fill="white"/>
</svg>
