<svg width="58" height="55" viewBox="0 0 58 55" fill="none" xmlns="http://www.w3.org/2000/svg">
<rect width="58" height="55" fill="white"/>
<path d="M44.8359 23.0401H37.5671V18.764C37.5671 17.7758 37.6942 17.3087 37.9017 17.0575C38.0698 16.8539 38.4873 16.5717 39.7542 16.5717C41.0205 16.5717 42.2344 16.5769 43.1318 16.5821C43.5805 16.5847 43.9499 16.5873 44.2071 16.5892L44.5045 16.5916L44.5823 16.5922L44.6022 16.5924L44.6071 16.5925L44.6084 16.5925L44.6087 16.5925H44.6088C45.1542 16.5974 45.6029 16.1643 45.6174 15.6191L45.7967 8.87195C45.8104 8.35695 45.4306 7.91582 44.9193 7.85288L44.7971 8.84538C44.9193 7.85288 44.9192 7.85286 44.9191 7.85285L44.9188 7.85282L44.9182 7.85275L44.9163 7.85252L44.91 7.85176L44.8877 7.8491L44.8046 7.83956C44.7326 7.83147 44.6276 7.82009 44.4925 7.80653C44.2225 7.7794 43.8322 7.74351 43.3446 7.7077C42.3702 7.63613 41.0042 7.56464 39.4328 7.56464C35.4274 7.56464 32.4255 8.73953 30.42 10.6783C28.4171 12.6145 27.5097 15.2149 27.5097 17.8672V23.04H22.9137C22.3614 23.04 21.9137 23.4877 21.9137 24.04V31.2652C21.9137 31.8175 22.3614 32.2652 22.9137 32.2652H27.5097V50.3333H9.88442C4.91046 50.3333 1 46.5508 1 41.9601V9.37314C1 4.7825 4.91046 1 9.88442 1L44.2489 1.00005C49.2229 1.00005 53.1333 4.78255 53.1333 9.37319V41.9602C53.1333 46.5508 49.2229 50.3333 44.2489 50.3333H37.5671V32.2652H44.4756C45.0085 32.2652 45.4478 31.8473 45.4744 31.315L45.8347 24.0899C45.8483 23.8164 45.7492 23.5492 45.5604 23.3508C45.3717 23.1524 45.1098 23.0401 44.8359 23.0401Z" fill="white" stroke="black" stroke-width="2" stroke-linejoin="round"/>
</svg>
