<svg width="53" height="51" viewBox="0 0 53 51" fill="none" xmlns="http://www.w3.org/2000/svg">
<path d="M26.5 13.8125C24.0978 13.8125 21.7495 14.498 19.7521 15.7822C17.7548 17.0664 16.198 18.8918 15.2787 21.0274C14.3594 23.163 14.1189 25.513 14.5875 27.7801C15.0562 30.0473 16.213 32.1298 17.9116 33.7643C19.6102 35.3988 21.7744 36.512 24.1305 36.9629C26.4865 37.4139 28.9286 37.1824 31.148 36.2978C33.3674 35.4132 35.2643 33.9152 36.5989 31.9932C37.9335 30.0712 38.6458 27.8116 38.6458 25.5C38.6458 22.4003 37.3662 19.4275 35.0884 17.2357C32.8106 15.0439 29.7213 13.8125 26.5 13.8125ZM26.5 35.0625C24.5345 35.0625 22.6132 34.5017 20.979 33.4509C19.3448 32.4002 18.0711 30.9067 17.3189 29.1594C16.5668 27.4121 16.37 25.4894 16.7534 23.6344C17.1369 21.7795 18.0833 20.0756 19.4731 18.7383C20.8629 17.401 22.6336 16.4902 24.5613 16.1212C26.489 15.7523 28.4871 15.9416 30.3029 16.6654C32.1188 17.3892 33.6708 18.6148 34.7627 20.1874C35.8547 21.7599 36.4375 23.6087 36.4375 25.5C36.4375 28.0361 35.3905 30.4684 33.5269 32.2617C31.6632 34.055 29.1356 35.0625 26.5 35.0625ZM38.6458 0H14.3542C10.5472 0 6.89617 1.45524 4.20424 4.04559C1.51231 6.63593 0 10.1492 0 13.8125V37.1875C0 39.0014 0.371281 40.7975 1.09265 42.4733C1.81401 44.1491 2.87133 45.6718 4.20424 46.9544C6.89617 49.5448 10.5472 51 14.3542 51H38.6458C40.5308 51 42.3974 50.6427 44.1389 49.9486C45.8805 49.2544 47.4629 48.237 48.7958 46.9544C50.1287 45.6718 51.186 44.1491 51.9074 42.4733C52.6287 40.7975 53 39.0014 53 37.1875V13.8125C53 11.9986 52.6287 10.2025 51.9074 8.52669C51.186 6.85088 50.1287 5.3282 48.7958 4.04559C47.4629 2.76298 45.8805 1.74556 44.1389 1.05141C42.3974 0.357271 40.5308 0 38.6458 0ZM50.7917 37.1875C50.7917 40.2872 49.512 43.26 47.2342 45.4518C44.9564 47.6436 41.8671 48.875 38.6458 48.875H14.3542C11.1329 48.875 8.04355 47.6436 5.76577 45.4518C3.48798 43.26 2.20833 40.2872 2.20833 37.1875V13.8125C2.20833 10.7128 3.48798 7.74002 5.76577 5.54819C8.04355 3.35636 11.1329 2.125 14.3542 2.125H38.6458C41.8671 2.125 44.9564 3.35636 47.2342 5.54819C49.512 7.74002 50.7917 10.7128 50.7917 13.8125V37.1875ZM43.0625 11.6875C43.0625 12.1078 42.933 12.5186 42.6903 12.8681C42.4477 13.2175 42.1028 13.4899 41.6993 13.6507C41.2957 13.8116 40.8517 13.8537 40.4233 13.7717C39.995 13.6897 39.6015 13.4873 39.2926 13.1901C38.9838 12.8929 38.7735 12.5143 38.6883 12.1021C38.6031 11.6899 38.6468 11.2626 38.8139 10.8743C38.9811 10.486 39.2641 10.1541 39.6273 9.92063C39.9904 9.68713 40.4174 9.5625 40.8542 9.5625C41.4398 9.5625 42.0016 9.78638 42.4157 10.1849C42.8298 10.5834 43.0625 11.1239 43.0625 11.6875Z" fill="black"/>
</svg>
