<svg width="13" height="13" viewBox="0 0 13 13" fill="none" xmlns="http://www.w3.org/2000/svg">
<g clip-path="url(#clip0_36_454)">
<rect width="13" height="13" fill="black"/>
<path d="M6.49983 2.42676C6.09059 2.42676 5.69054 2.54811 5.35026 2.77548C5.00999 3.00284 4.74478 3.326 4.58817 3.70409C4.43156 4.08218 4.39058 4.49822 4.47042 4.8996C4.55026 5.30098 4.74733 5.66967 5.03671 5.95905C5.32609 6.24842 5.69478 6.44549 6.09616 6.52533C6.49754 6.60517 6.91358 6.5642 7.29167 6.40759C7.66976 6.25098 7.99292 5.98576 8.22028 5.64549C8.44764 5.30522 8.569 4.90517 8.569 4.49592C8.569 3.94715 8.351 3.42085 7.96295 3.0328C7.57491 2.64476 7.04861 2.42676 6.49983 2.42676ZM6.49983 5.84287C6.23343 5.84287 5.97301 5.76387 5.75151 5.61587C5.53001 5.46786 5.35736 5.2575 5.25542 5.01138C5.15347 4.76526 5.1268 4.49443 5.17877 4.23315C5.23074 3.97187 5.35902 3.73186 5.5474 3.54349C5.73577 3.35512 5.97577 3.22683 6.23706 3.17486C6.49834 3.12289 6.76916 3.14956 7.01529 3.25151C7.26141 3.35346 7.47177 3.5261 7.61978 3.7476C7.76778 3.96911 7.84678 4.22952 7.84678 4.49592C7.84582 4.85253 7.70349 5.1942 7.45099 5.44602C7.19849 5.69784 6.85644 5.83926 6.49983 5.83926V5.84287Z" fill="white"/>
<path d="M6.49998 0.722168C5.37519 0.723107 4.29648 1.16911 3.49944 1.96276C2.7024 2.75642 2.25182 3.83323 2.24609 4.958C2.24609 6.64439 3.19221 8.05633 3.88554 9.0855L4.01193 9.27328C4.70175 10.2731 5.44177 11.2373 6.22915 12.1622L6.50359 12.4836L6.77804 12.1622C7.56532 11.2372 8.30533 10.273 8.99526 9.27328L9.12165 9.08189C9.81137 8.05272 10.7575 6.64439 10.7575 4.958C10.7518 3.8326 10.3007 2.75525 9.50286 1.96149C8.70504 1.16773 7.6254 0.722153 6.49998 0.722168ZM8.51859 8.66661L8.38859 8.858C7.76748 9.78967 6.94415 10.8333 6.49998 11.3497C6.07387 10.8333 5.23248 9.78967 4.61137 8.858L4.48498 8.66661C3.84582 7.71328 2.96832 6.40967 2.96832 4.94356C2.96832 4.47977 3.05967 4.02053 3.23715 3.59205C3.41463 3.16356 3.67477 2.77424 4.00272 2.44629C4.33066 2.11835 4.71999 1.85821 5.14847 1.68072C5.57695 1.50324 6.0362 1.41189 6.49998 1.41189C6.96377 1.41189 7.42301 1.50324 7.85149 1.68072C8.27997 1.85821 8.6693 2.11835 8.99725 2.44629C9.32519 2.77424 9.58533 3.16356 9.76282 3.59205C9.9403 4.02053 10.0317 4.47977 10.0317 4.94356C10.0317 6.42411 9.15776 7.72772 8.51859 8.66661Z" fill="white"/>
</g>
<defs>
<clipPath id="clip0_36_454">
<rect width="13" height="13" fill="white"/>
</clipPath>
</defs>
</svg>
