<svg width="37" height="33" viewBox="0 0 37 33" fill="none" xmlns="http://www.w3.org/2000/svg">
<path d="M18.5 0L6.73136 11.8003H0V19.7502H1.65179L5.32668 32.0473L5.61607 33H31.3839L31.6733 32.0473L35.3482 19.7502H37V11.8003H30.2686L18.5 0ZM18.5 3.76825L26.5118 11.8003H10.4895L18.5 3.76825ZM2.64286 14.4503H34.3571V17.1002H33.3661L33.0767 18.0529L29.4018 30.35H7.59821L3.92332 18.0529L3.63393 17.1002H2.64286V14.4503ZM11.8929 18.4252V27.7001H14.5357V18.4252H11.8929ZM17.1786 18.4252V27.7001H19.8214V18.4252H17.1786ZM22.4643 18.4252V27.7001H25.1071V18.4252H22.4643Z" fill="black"/>
</svg>
