<svg width="18" height="16" viewBox="0 0 18 16" fill="none" xmlns="http://www.w3.org/2000/svg">
<path d="M17.9934 4.77814C18.0022 4.72214 18.0022 4.66533 17.9934 4.60933V4.54502C17.978 4.50016 17.9569 4.45701 17.9305 4.41641C17.9188 4.39325 17.9037 4.37162 17.8855 4.3521L17.7955 4.24759L17.7235 4.19936L17.6156 4.12701L9.51853 0.107697C9.38176 0.0371435 9.22662 0 9.0687 0C8.91077 0 8.75563 0.0371435 8.61886 0.107697L0.52181 4.12701L0.440839 4.18329L0.341876 4.24759C0.315739 4.27388 0.294477 4.30373 0.278898 4.33602C0.250114 4.35909 0.225795 4.38625 0.206925 4.41641C0.183565 4.45168 0.16542 4.48951 0.152944 4.52895C0.147911 4.55555 0.147911 4.58273 0.152944 4.60933C0.0910879 4.65699 0.039288 4.71416 0 4.77814V11.2091C0.00116761 11.3523 0.0451527 11.4927 0.127404 11.6156C0.209655 11.7386 0.327184 11.8397 0.467829 11.9084L8.56488 15.9277C8.60205 15.9471 8.64122 15.9633 8.68184 15.976H8.7718C8.9196 16.008 9.07384 16.008 9.22164 15.976H9.31161L9.43756 15.9277L17.5346 11.9084C17.6736 11.8386 17.7893 11.7371 17.8699 11.6142C17.9505 11.4913 17.9932 11.3515 17.9934 11.2091V4.77814ZM8.99672 7.8891L2.753 4.77814L5.23609 3.55627L11.3809 6.69134L8.99672 7.8891ZM8.99672 1.68327L15.2404 4.77814L13.2252 5.78297L7.08042 2.63987L8.99672 1.68327ZM1.79934 6.14471L8.09705 9.29586V13.8618L1.79934 10.7348V6.14471ZM9.89639 13.8618V9.29586L12.5954 7.94537V10.4052L14.3948 9.60133V7.04504L16.1941 6.15275V10.7348L9.89639 13.8618Z" fill="white"/>
</svg>
