<svg width="58" height="55" viewBox="0 0 58 55" fill="none" xmlns="http://www.w3.org/2000/svg">
<path d="M54.1329 15.0742V36.2594C54.1329 39.7711 52.6618 43.1389 50.0432 45.622C47.4247 48.1052 43.8731 49.5002 40.1699 49.5002H17.8292C14.126 49.5002 10.5744 48.1052 7.95587 45.622C5.3373 43.1389 3.86621 39.7711 3.86621 36.2594V15.0742C3.86621 11.5626 5.3373 8.19474 7.95587 5.71162C10.5744 3.2285 14.126 1.8335 17.8292 1.8335H40.1699C43.8731 1.8335 47.4247 3.2285 50.0432 5.71162C52.6618 8.19474 54.1329 11.5626 54.1329 15.0742Z" stroke="black" stroke-width="2.5" stroke-linecap="round" stroke-linejoin="round"/>
<path d="M23.4149 25.6667C21.7579 25.6667 20.1382 26.1327 18.7604 27.0056C17.3827 27.8785 16.3089 29.1193 15.6748 30.571C15.0407 32.0226 14.8748 33.62 15.1981 35.161C15.5213 36.7021 16.3193 38.1177 17.4909 39.2287C18.6626 40.3398 20.1553 41.0964 21.7805 41.403C23.4056 41.7095 25.0901 41.5522 26.6209 40.9509C28.1518 40.3496 29.4602 39.3313 30.3808 38.0249C31.3013 36.7184 31.7927 35.1824 31.7927 33.6112V9.77783C32.7226 12.426 36.2608 17.7223 42.963 17.7223" stroke="black" stroke-width="2.5" stroke-linecap="round" stroke-linejoin="round"/>
</svg>
